<?xml version="1.0" encoding="UTF-8"?>
<svg xmlns="http://www.w3.org/2000/svg" xmlns:xlink="http://www.w3.org/1999/xlink" version="1.1" id="b" x="0px" y="0px" viewBox="0 0 142.5 165.9" style="enable-background:new 0 0 142.5 165.9;" xml:space="preserve">
<style type="text/css">
	.st0{fill:none;stroke:#1F80C0;stroke-width:2.75;stroke-linecap:round;stroke-miterlimit:10;}
	.st1{fill:#1F80C0;}
	.st2{fill:#2582C5;}
	.st3{fill:none;}
</style>
<g id="c">
	<path class="st0" d="M87,28.6c0-14.9,12.1-27,27-27s27,12.1,27,27s-12.1,27-27,27"></path>
	<path class="st1" d="M28.5,165.8c-15.6,0-28.3-12.7-28.3-28.4S13,109,28.6,109c0.8,0,1.4,0.6,1.4,1.4s-0.6,1.4-1.4,1.4   C14.5,111.8,3,123.3,3,137.4S14.4,163,28.5,163c14.1,0,25.6-11.5,25.6-25.6c0-0.8,0.6-1.4,1.4-1.4s1.4,0.6,1.4,1.4   C56.9,153,44.1,165.8,28.5,165.8z"></path>
	<path class="st2" d="M103.3,35.8C103.3,35.8,103.3,35.8,103.3,35.8L103.3,35.8L103.3,35.8z"></path>
	<g>
		<path class="st2" d="M34.9,131.5C34.9,131.5,35,131.6,34.9,131.5L34.9,131.5L34.9,131.5z"></path>
		<g>
			<path class="st2" d="M36.3,132.1l30.9-0.3c1.9,0,1.9-1.1,1.9-1.6s0-1.6-1.9-1.6l-26.7,0.3l40.1-38.7c0.3-0.2,0.5-0.6,0.5-1     c0-0.4-0.2-0.8-0.6-1.1c-0.8-0.7-2-0.7-2.8,0.1l-39.6,37.6l-0.3-24.9c0-0.5,0-1.6-1.9-1.6s-1.9,1.1-1.9,1.6l0.3,29.5     c0.1,0.4,0.3,1,0.5,1.2C35.2,131.7,36,132.1,36.3,132.1z"></path>
			<g>
				<path class="st3" d="M36.3,131.8l30.9-0.3c0.6,0,1.1-0.1,1.4-0.4c0.3-0.3,0.3-0.7,0.3-1c0-0.5,0-1.3-1.7-1.3l-27.3,0.3L80.4,90      c0.3-0.3,0.5-0.6,0.5-0.8c0-0.3-0.2-0.6-0.5-0.9c-0.7-0.6-1.7-0.6-2.5,0.1l-40,38l-0.3-25.5c0-0.2,0-0.7-0.3-0.9      c-0.3-0.3-0.7-0.4-1.3-0.4c0,0,0,0,0,0c-0.6,0-1.1,0.1-1.4,0.4c-0.3,0.3-0.3,0.7-0.3,1l0.3,29.5c0.1,0.3,0.3,0.9,0.4,1l0,0      C35.4,131.5,36.1,131.8,36.3,131.8z"></path>
				<path class="st2" d="M71,35.6c-1.6,0-1.6,0.9-1.6,1.4s0,1.4,1.6,1.4h27.3l-41,38.7c-0.3,0.3-0.5,0.6-0.5,0.8      c0,0.3,0.2,0.6,0.5,0.9c0.7,0.6,1.7,0.6,2.5-0.1l40.4-37.5v25.5c0,0.5,0,1.4,1.7,1.4c1.6,0,1.6-0.9,1.6-1.4V37.1      c-0.1-0.3-0.3-0.9-0.4-1l0,0c-0.2-0.2-0.9-0.5-1.2-0.5H71z"></path>
				<path class="st2" d="M103.1,36C103.1,36,103.1,36,103.1,36L103.1,36C103.1,36,103.1,36,103.1,36z"></path>
			</g>
		</g>
	</g>
</g>
</svg>
