<?xml version="1.0" encoding="UTF-8"?>
<svg id="b" xmlns="http://www.w3.org/2000/svg" viewBox="0 0 165.6 186.9">
  <defs>
    <style>
      .cls-1 {
        fill: #2582c5;
      }
    </style>
  </defs>
  <path class="cls-1" d="m152.1,60.6c-.3.3-.4.6-.4,1s.2.8.4,1c3.3,3.2,5,7.6,5,12.2,0,9.5-7.7,17.2-17.2,17.2h-37.6v37.6c0,7.2-4.6,13.7-11.4,16.2-.4.1-.7.4-.8.8-.2.4-.2.8-.1,1.1.2.4.5.8.9.9l.3.1h.2c.2,0,.3,0,.5-.1,8-2.9,13.3-10.5,13.3-18.9v-34.7h34.6c11.1,0,20.1-9,20.1-20.1,0-5.4-2.1-10.5-5.9-14.3-.4-.5-1.4-.5-1.9,0Z"/>
  <path class="cls-1" d="m102.4,20.1v37.6h19.6c.8,0,1.5-.7,1.5-1.5s-.7-1.5-1.5-1.5h-16.7V20.1c0-11.1-9-20.1-20.1-20.1s-20.1,9-20.1,20.1v34.6H30.5c-11.1,0-20.1,9-20.1,20.1s9,20.1,20.1,20.1h34.6v31.4c0,.8.7,1.5,1.5,1.5s1.5-.7,1.5-1.5v-34.3H30.5c-9.5,0-17.2-7.7-17.2-17.2s7.7-17.2,17.2-17.2h37.6V20.1c0-9.5,7.7-17.2,17.2-17.2s17.1,7.7,17.1,17.2Z"/>
  <path class="cls-1" d="m70.5,134.4h-18v-18c0-6.4-5.2-11.5-11.5-11.5s-11.5,5.2-11.5,11.5v18H11.5c-6.4,0-11.5,5.2-11.5,11.5s5.2,11.5,11.5,11.5h18v18c0,6.4,5.2,11.5,11.5,11.5s11.5-5.2,11.5-11.5v-18h18c6.4,0,11.5-5.2,11.5-11.5s-5.2-11.5-11.5-11.5Zm0,20.1h-21v21c0,4.7-3.8,8.6-8.6,8.6s-8.6-3.8-8.6-8.6v-21H11.3c-4.7,0-8.6-3.8-8.6-8.6s3.8-8.6,8.6-8.6h21v-21c0-4.7,3.8-8.6,8.6-8.6s8.6,3.8,8.6,8.6v21h21c4.7,0,8.6,3.8,8.6,8.6s-3.9,8.6-8.6,8.6Z"/>
  <path class="cls-1" d="m157.9,26.6h-11.5v-11.5c0-4.2-3.4-7.6-7.6-7.6s-7.7,3.4-7.7,7.6v11.5h-11.5c-4.2,0-7.6,3.4-7.6,7.6s3.4,7.6,7.6,7.6h11.5v11.5c0,4.2,3.4,7.6,7.7,7.6s7.6-3.4,7.6-7.6v-11.4h11.5c4.2,0,7.7-3.4,7.7-7.6s-3.5-7.7-7.7-7.7Zm0,13h-13.8v13.8c0,3-2.4,5.4-5.4,5.4s-5.4-2.4-5.4-5.4v-13.8h-13.8c-3,0-5.4-2.4-5.4-5.4s2.4-5.4,5.4-5.4h13.8v-13.7c0-3,2.4-5.4,5.4-5.4s5.4,2.4,5.4,5.4v13.8h13.8c3,0,5.4,2.4,5.4,5.4s-2.4,5.3-5.4,5.3Z"/>
</svg>