<?xml version="1.0" encoding="UTF-8"?>
<svg id="b" xmlns="http://www.w3.org/2000/svg" viewBox="0 0 200.94 175.2">
  <defs>
    <style>
      .cls-1 {
        fill: #2681c4;
      }
    </style>
  </defs>
  <path class="cls-1" d="m200.5,3.2c-.2-.2-.4-.3-.6-.4h-.1C186,.1,176.4-.6,166.5.5c-9.8,1.1-21.5,4.7-31.3,9.7-1.8.9-3.2,2.6-3.8,4.7l-2.6,9.2c-.2.5-.6.7-.7.7-.3.1-.7,0-.9-.2l-3.9-2.9c-2.1-1.6-5.1-1.4-7,.5l-14.3,14.3c-1.6,1.6-2.2,3.8-1.8,5.9l1.2,5.9-2.3-1.5c-.9-.6-1.9-.6-2.8-.2-.9.4-1.5,1.3-1.7,2.3-.7,5-1.1,11.6.5,14.7.7,1.4,2.2,3.1,4.2,4.8l.4.3-.3.4c-10.5,13.2-16,23.8-16.1,23.9-.3.6-.1,1.4.6,1.7.1,0,.2.1.2.1h.4c.5,0,.9-.3,1.1-.7,0-.1,5.4-10.4,15.9-23.5l.3-.4.4.3c4.7,3.2,11.2,6.1,15.4,5.5,14.6-2.1,30.8-17.2,32.3-23.5.4-1.5-.1-2.4-.6-2.9l-.1-.1c-.1-.3,0-.5.1-.6l.2-.3,4.3.9c2.5.5,5.1-.3,6.9-2.2L200.6,5.2c.2-.2.3-.4.3-.6v-.1c.1-.3,0-.6-.1-.9-.2-.2-.3-.3-.3-.4Zm-98.9,62.9l-.3.4-.4-.3c-1.7-1.4-3-2.8-3.6-4-1-1.9-1.1-6.6-.3-12.8l.4.1.3-.4,1.6,1.1c1,.6,2.2.6,3.2,0s1.4-1.8,1.2-2.9l-1.1-5.3c-.3-1.3.2-2.6,1.1-3.6l14.3-14.3c1-1,2.5-1.1,3.6-.3l3.9,2.9c1,.7,2.2.9,3.3.5,1.1-.4,2-1.3,2.3-2.4l2.6-9.2c.4-1.3,1.3-2.5,2.5-3.1,9.6-4.9,20.9-8.4,30.5-9.4,7.5-.8,14.9-.6,24,.8l2.2.3-2.1.6c-9.6,3-30.1,11.3-60.2,33.5-10.2,7.5-20,16.9-29,27.8Zm57-20.7c-1.2,1.2-2.8,1.8-4.5,1.4l-4-.8c-1.3-.3-2.5.3-3.2,1.3-.7,1.1-.7,2.4,0,3.5l.1.2c0,.1.1.1.1.2l.1.2v.2c-.3,3.3-14.8,19.5-30.2,21.7-.3,0-.6.1-.9.1-3.6,0-8.8-2.6-12.4-5l-.5-.3.4-.4c8.8-10.7,18.4-19.8,28.5-27.3,31.3-23.1,52.2-31,61.9-33.7l1.7-.5-37.1,39.2Z"/>
  <path class="cls-1" d="m83.4,69.3c-.1-.7-.7-1.2-1.3-1.2h-.2c-11.2,1.4-19.6,11-19.6,22.2,0,12.3,9.9,22.3,22.2,22.3h.1c12.3,0,22.3-10,22.3-22.3v-.7c0-.7-.6-1.3-1.4-1.3h0c-.7,0-1.3.6-1.3,1.4v.6c0,10.8-8.8,19.6-19.6,19.6s-19.6-8.8-19.6-19.6c0-9.9,7.4-18.3,17.2-19.5.7,0,1.2-.7,1.2-1.5Z"/>
  <path class="cls-1" d="m91.8,38c.3-.2.5-.5.5-.9s-.1-.7-.3-1-.5-.5-.9-.5c-2.2-.2-4.4-.4-6.5-.4-30.4,0-55.1,24.7-55.1,55.1s24.2,54.5,54.1,55.1h1c30.4,0,55.1-24.7,55.1-55.1,0-2-.1-4-.3-5.9-.1-.7-.8-1.3-1.5-1.2-.7.1-1.3.7-1.2,1.5.2,1.9.3,3.8.3,5.7,0,28.9-23.5,52.4-52.4,52.4s-52.4-23.5-52.4-52.4,23.5-52.4,52.4-52.4c2.1,0,4.2.1,6.2.4.4-.1.7-.2,1-.4Z"/>
  <path class="cls-1" d="m164.7,66.8c-.7.2-1.1.9-.9,1.7,1.9,7.1,2.9,14.4,2.9,21.8,0,45.2-36.8,82-82,82S2.7,135.5,2.7,90.3,39.5,8.3,84.7,8.3c7.3,0,14.4.9,21.3,2.8.7.2,1.5-.2,1.7-1,.1-.4,0-.7-.1-1-.2-.3-.5-.5-.8-.6-7.1-1.9-14.6-2.9-22-2.9C38.1,5.6,0,43.6,0,90.4s38,84.8,84.8,84.8,84.8-38,84.8-84.8c0-7.6-1-15.2-3-22.5-.5-.8-1.2-1.3-1.9-1.1Z"/>
</svg>